<svg width="350" height="309" viewBox="0 0 350 309" fill="none" xmlns="http://www.w3.org/2000/svg">
<path fill-rule="evenodd" clip-rule="evenodd" d="M76.7003 187.414C60.775 155.697 58.9673 110.446 58.7711 98.6502C58.7442 97.015 60.0147 95.7442 61.65 95.7713C70.2584 95.9146 96.6832 96.9156 122.663 103.636C113.129 64.671 161.36 12.0533 171.97 1.06329C173.106 -0.11322 174.895 -0.11322 176.03 1.06329C186.684 12.0989 235.271 65.1068 225.215 104.118C251.773 96.9632 279.247 95.9178 288.057 95.7713C289.692 95.7442 290.963 97.015 290.936 98.6502C290.74 110.439 288.935 155.643 273.035 187.358C307.02 197.012 339.66 218.141 348.617 224.212C349.971 225.129 350.289 226.932 349.33 228.258C338.963 242.595 282.863 316.423 233.126 307.332C210.238 303.148 188.063 296.925 174.966 282.227C161.87 296.925 139.695 303.148 116.808 307.332C67.0704 316.423 10.9698 242.595 0.603089 228.258C-0.355407 226.932 -0.0375356 225.129 1.31647 224.212C10.2554 218.153 42.7867 197.094 76.7003 187.414Z" fill="#E0D9D1"/>
</svg>
